<svg width="42" height="19" viewBox="0 0 42 19" fill="none" xmlns="http://www.w3.org/2000/svg">
<path d="M40.636 4.75482C39.7905 4.32316 38.7553 4.6584 38.3236 5.50377C35.2284 11.5644 29.0128 15.5625 22 15.5625C15.6082 15.5625 9.83993 12.234 6.53529 7.01962L8.98597 8.76991C9.75846 9.32154 10.8318 9.14262 11.3835 8.37021C11.9352 7.59772 11.7562 6.52436 10.9838 5.97264L3.5524 0.665058C2.47654 -0.103567 0.962154 0.585908 0.841841 1.90763L0.00730237 11.0625C-0.0788929 12.0079 0.617631 12.844 1.56286 12.9302C2.50937 13.0162 3.34443 12.319 3.43054 11.3746L3.65827 8.87647C7.52185 14.9443 14.2288 19 22 19C30.3601 19 37.7276 14.2286 41.3849 7.06723C41.8167 6.22186 41.4813 5.18657 40.636 4.75482Z" fill="black"/>
</svg>
